<svg width="106" height="106" viewBox="0 0 106 106" fill="none" xmlns="http://www.w3.org/2000/svg">
<path fill-rule="evenodd" clip-rule="evenodd" d="M66.727 103.272C67.0556 104.159 67.1686 106 67.1686 106H22.8536C22.8536 106 22.8536 104.141 23.2493 103.205C23.6451 102.269 24.8075 101.407 24.8075 101.407H24.9595C25.029 101.198 25.0879 100.986 25.1361 100.771H25.0867C23.2387 98.3645 22.1257 94.764 22.3943 91.0787C22.6628 87.3935 25.3552 83.6587 27.1749 80.772L27.2491 80.4964C27.1819 80.2773 27.2667 80.3303 27.2491 80.1077C26.7191 79.9735 25.7368 79.1078 26.0195 78.0478C26.1271 77.5646 26.3905 77.13 26.769 76.8109C27.1475 76.4917 27.6202 76.3056 28.1147 76.2811H28.3444L28.4292 75.9985L28.4115 75.7087C30.2029 71.6136 31.8565 68.2499 33.284 64.4621C44.3115 74.9703 62.328 75.7229 62.328 75.7229L62.3456 75.9172V76.2705H62.7202C63.2186 76.2909 63.6965 76.475 64.0797 76.7944C64.463 77.1138 64.7303 77.5506 64.8402 78.0372C65.1476 79.1926 63.9745 80.1183 63.4834 80.1325L63.2431 80.3727C63.2678 80.5953 63.4374 80.6201 63.4233 80.9027C65.4974 84.0474 67.4725 88.0895 67.7128 91.7889C67.9271 94.8449 67.0494 97.8776 65.2359 100.347C65.2897 100.715 65.3122 101.087 65.3031 101.46C65.5504 101.689 66.4372 102.52 66.7164 103.258L66.727 103.272Z" fill="url(#paint0_linear_9_34)"/>
<path fill-rule="evenodd" clip-rule="evenodd" d="M29.461 59.1162C19.3344 44.1667 26.4788 32.5067 26.4788 32.5067C24.8252 32.0155 20.9174 33.2133 20.9174 33.2133C25.546 16.2533 42.7216 2.20833 61.8122 7.79453C62.3033 4.97493 70.4406 0 70.4406 0C69.6067 0.8268 68.3453 8.86867 68.3453 8.86867C69.1721 7.367 72.7584 2.31787 72.7584 2.31787C71.2674 5.80173 72.7584 13.2712 72.7584 13.2712C77.0691 17.5783 81.8815 32.5067 81.8815 32.5067L83.7082 35.1602C86.0332 38.4886 85.1781 43.7073 82.8814 44.9475C74.2601 49.6009 73.4227 41.1351 73.4227 41.1351C66.2889 40.3083 60.9783 32.3441 60.9783 32.3441C51.3641 37.3155 56.7206 51.3535 60.8723 56.7241C66.2041 63.6389 62.2856 74.8113 62.2856 74.8113C62.2856 74.8113 39.4462 73.8714 29.4504 59.1056L29.461 59.1162Z" fill="url(#paint1_linear_9_34)"/>
<defs>
<linearGradient id="paint0_linear_9_34" x1="32.2346" y1="77.8853" x2="89.0612" y2="146.284" gradientUnits="userSpaceOnUse">
<stop stop-color="white"/>
<stop offset="0.35" stop-color="#999999"/>
<stop offset="0.5" stop-color="white"/>
<stop offset="0.65" stop-color="#999999"/>
<stop offset="1" stop-color="white"/>
</linearGradient>
<linearGradient id="paint1_linear_9_34" x1="63.1972" y1="56.0563" x2="19.7902" y2="-33.39" gradientUnits="userSpaceOnUse">
<stop stop-color="white"/>
<stop offset="0.35" stop-color="#999999"/>
<stop offset="0.5" stop-color="white"/>
<stop offset="0.65" stop-color="#999999"/>
<stop offset="1" stop-color="white"/>
</linearGradient>
</defs>
</svg>
